<svg xmlns="http://www.w3.org/2000/svg" xmlns:xlink="http://www.w3.org/1999/xlink" width="1920" zoomAndPan="magnify" viewBox="0 0 1440 809.999993" height="1080" preserveAspectRatio="xMidYMid meet" version="1.0"><defs><g/></defs><g fill="#5ce1e6" fill-opacity="1"><g transform="translate(49.801007, 484.106575)"><g><path d="M 353.839844 61.128906 L 344.4375 65.832031 C 336.207031 69.945312 327.976562 71.707031 321.511719 72.882812 C 313.285156 74.648438 303.878906 75.234375 294.476562 74.058594 C 291.535156 72.296875 288.597656 75.234375 286.835938 71.707031 C 281.542969 72.296875 276.253906 69.359375 271.550781 67.59375 C 266.261719 64.65625 262.148438 61.128906 258.035156 58.191406 L 248.628906 49.375 C 246.867188 48.199219 242.75 45.847656 242.164062 42.90625 C 236.285156 37.03125 231.582031 29.976562 226.292969 23.511719 L 221.589844 16.457031 C 220.414062 15.871094 219.828125 15.871094 219.238281 15.28125 C 219.238281 11.753906 216.300781 9.40625 215.714844 6.464844 C 211.597656 -0.585938 207.484375 -6.464844 202.78125 -14.695312 C 199.253906 -21.160156 196.316406 -27.625 194.554688 -32.328125 C 192.789062 -37.03125 190.4375 -39.382812 188.675781 -43.496094 L 184.5625 -49.960938 C 183.972656 -52.3125 182.796875 -54.664062 179.269531 -59.367188 C 178.097656 -61.714844 177.507812 -64.65625 175.746094 -67.007812 C 174.570312 -68.769531 174.570312 -71.121094 172.804688 -74.058594 C 167.515625 -81.113281 163.988281 -86.992188 161.636719 -92.867188 C 161.636719 -92.867188 172.804688 -98.746094 172.21875 -98.746094 C 174.570312 -99.332031 176.921875 -99.332031 177.507812 -100.507812 C 179.269531 -104.035156 182.210938 -104.625 184.5625 -104.625 C 185.738281 -105.800781 186.914062 -105.800781 188.675781 -107.5625 L 185.738281 -107.5625 C 189.851562 -111.089844 193.378906 -113.441406 198.667969 -116.378906 C 203.371094 -119.316406 205.132812 -119.90625 205.722656 -121.082031 C 209.246094 -122.257812 209.246094 -124.019531 211.597656 -125.195312 C 212.773438 -126.371094 214.539062 -126.960938 216.300781 -129.898438 C 216.890625 -132.835938 222.765625 -132.25 223.941406 -135.777344 C 225.117188 -137.539062 229.820312 -141.066406 235.109375 -142.242188 C 239.222656 -145.769531 243.339844 -148.121094 249.804688 -153.410156 L 253.917969 -157.523438 C 259.796875 -158.113281 260.382812 -161.050781 262.148438 -165.164062 C 265.675781 -162.8125 267.4375 -165.164062 269.199219 -166.929688 C 269.199219 -168.105469 270.375 -168.105469 272.140625 -168.691406 L 282.71875 -178.097656 C 286.835938 -181.035156 292.710938 -182.210938 296.238281 -186.324219 C 299.765625 -189.851562 312.109375 -195.140625 319.75 -198.667969 C 323.277344 -200.429688 327.390625 -202.195312 339.734375 -205.132812 C 340.320312 -207.484375 340.320312 -210.421875 340.910156 -213.363281 C 343.847656 -218.652344 343.847656 -218.652344 337.382812 -221.589844 C 337.382812 -222.179688 337.382812 -223.355469 333.855469 -223.941406 L 326.804688 -223.941406 L 316.8125 -221.003906 C 315.046875 -219.828125 312.695312 -219.238281 309.757812 -218.066406 C 302.703125 -215.125 285.070312 -205.722656 272.140625 -198.667969 C 263.910156 -193.964844 255.09375 -185.738281 243.339844 -179.269531 C 244.515625 -178.097656 244.515625 -178.097656 244.515625 -177.507812 C 244.515625 -177.507812 242.75 -177.507812 243.339844 -175.746094 C 239.222656 -175.746094 224.53125 -165.164062 218.066406 -160.460938 C 213.363281 -156.9375 191.027344 -141.652344 182.210938 -135.1875 C 175.746094 -130.484375 166.929688 -124.019531 158.113281 -118.144531 C 152.820312 -115.203125 149.292969 -111.675781 144.003906 -108.152344 L 136.953125 -105.210938 C 143.417969 -123.433594 151.644531 -141.066406 159.285156 -159.875 C 165.164062 -176.332031 171.042969 -190.4375 175.746094 -208.074219 C 177.507812 -214.539062 178.097656 -218.066406 179.269531 -225.707031 C 180.445312 -229.820312 180.445312 -237.460938 179.859375 -242.164062 C 176.921875 -255.09375 168.691406 -275.667969 125.785156 -273.316406 C 112.851562 -272.140625 106.386719 -265.085938 96.394531 -260.972656 C 91.105469 -257.445312 86.402344 -253.917969 81.113281 -248.628906 C 81.699219 -246.867188 80.523438 -244.515625 79.9375 -243.925781 L 76.410156 -241.574219 L 71.707031 -235.109375 C 65.832031 -225.707031 58.777344 -222.179688 55.25 -215.125 C 50.546875 -208.074219 44.082031 -200.429688 39.96875 -192.203125 C 38.207031 -188.089844 36.441406 -183.972656 35.855469 -180.445312 C 34.679688 -174.570312 38.207031 -169.867188 41.730469 -166.929688 C 47.023438 -165.753906 52.898438 -166.929688 52.898438 -167.515625 C 54.074219 -170.453125 54.664062 -172.804688 55.25 -175.15625 C 57.601562 -179.859375 60.539062 -185.738281 62.304688 -190.4375 C 64.066406 -193.964844 67.007812 -198.667969 69.359375 -202.195312 L 76.410156 -211.011719 C 77.585938 -212.1875 77.585938 -213.949219 78.175781 -214.539062 C 82.289062 -216.890625 86.402344 -218.652344 86.992188 -223.355469 L 88.167969 -226.882812 C 88.167969 -226.292969 93.457031 -233.347656 98.160156 -237.460938 C 99.921875 -239.222656 101.683594 -240.398438 104.625 -242.75 C 121.667969 -257.445312 130.484375 -259.207031 139.890625 -258.035156 C 144.003906 -257.445312 151.644531 -252.15625 151.058594 -243.339844 C 150.46875 -233.347656 148.707031 -218.066406 145.179688 -208.074219 C 138.714844 -190.4375 134.601562 -172.21875 128.136719 -155.171875 C 125.195312 -147.53125 122.84375 -139.890625 120.492188 -134.011719 C 119.316406 -132.25 105.210938 -89.929688 104.625 -88.167969 C 102.859375 -80.523438 101.683594 -77.585938 99.921875 -70.53125 L 98.160156 -67.007812 C 94.042969 -49.960938 92.28125 -43.496094 89.929688 -32.914062 C 83.464844 -4.703125 79.9375 5.878906 75.824219 37.03125 C 72.882812 58.191406 102.273438 54.074219 102.859375 48.785156 C 106.386719 19.398438 107.5625 5.878906 115.203125 -24.097656 C 116.96875 -31.152344 118.730469 -39.96875 119.90625 -45.257812 L 131.660156 -84.640625 L 133.425781 -84.640625 L 154.585938 -47.023438 C 156.347656 -40.554688 161.050781 -33.503906 163.402344 -27.039062 C 166.929688 -24.097656 166.929688 -22.921875 168.691406 -19.984375 C 169.867188 -19.398438 172.804688 -19.398438 171.042969 -17.046875 C 170.453125 -17.046875 171.042969 -15.28125 171.628906 -14.105469 C 173.980469 -14.105469 173.980469 -13.519531 173.980469 -12.34375 C 173.980469 -9.992188 175.15625 -7.054688 175.746094 -5.289062 C 178.097656 -2.9375 178.097656 0 181.035156 1.761719 C 182.210938 3.527344 183.972656 6.464844 184.5625 9.40625 C 185.738281 11.167969 185.738281 14.695312 188.675781 15.871094 L 192.789062 24.097656 C 192.789062 24.097656 193.964844 25.273438 194.554688 25.273438 C 195.730469 29.390625 198.082031 25.863281 199.253906 27.625 C 197.492188 27.625 198.082031 28.800781 197.492188 28.800781 L 198.082031 32.328125 C 200.429688 32.914062 202.78125 33.503906 205.132812 34.679688 L 203.957031 34.679688 C 204.546875 36.441406 203.371094 37.03125 203.371094 38.207031 C 203.371094 39.382812 204.546875 40.554688 206.308594 42.90625 C 206.898438 42.90625 212.1875 49.375 212.1875 51.136719 L 215.714844 55.839844 L 226.292969 65.832031 L 233.933594 70.53125 L 233.933594 71.121094 L 240.988281 75.824219 C 243.925781 76.410156 246.867188 78.761719 248.042969 79.351562 C 269.199219 89.34375 275.667969 89.929688 296.828125 89.929688 C 306.820312 89.929688 317.398438 87.578125 322.101562 86.402344 C 328.566406 84.050781 333.855469 83.464844 337.96875 81.113281 C 340.910156 79.9375 343.261719 79.351562 344.4375 77.585938 L 333.855469 78.761719 L 333.269531 77.585938 C 344.4375 71.707031 347.960938 71.707031 353.839844 66.417969 Z M 353.839844 61.128906 "/></g></g></g><g fill="#5ce1e6" fill-opacity="1"><g transform="translate(373.664528, 484.106575)"><g><path d="M 48.785156 -128.722656 C 52.3125 -126.371094 55.839844 -126.371094 58.777344 -127.546875 C 64.066406 -131.074219 69.359375 -134.601562 71.707031 -141.066406 C 74.058594 -147.53125 71.707031 -153.996094 69.945312 -159.875 C 68.769531 -163.988281 65.242188 -165.753906 58.777344 -165.164062 C 58.777344 -165.164062 56.425781 -165.164062 55.839844 -164.578125 C 48.199219 -160.460938 41.730469 -156.347656 38.792969 -147.53125 C 37.617188 -141.652344 38.792969 -136.953125 42.320312 -132.835938 C 44.082031 -131.074219 47.023438 -129.898438 48.785156 -128.722656 Z M 128.136719 -65.832031 C 131.074219 -71.121094 130.484375 -74.648438 129.308594 -75.824219 C 121.667969 -68.183594 114.027344 -61.714844 106.976562 -55.25 C 98.160156 -47.023438 89.929688 -37.617188 80.523438 -29.390625 C 71.707031 -20.570312 61.128906 -12.34375 51.722656 -4.113281 C 47.023438 0 41.730469 2.351562 35.265625 4.113281 C 35.855469 -1.761719 37.617188 -7.054688 37.617188 -12.34375 C 38.207031 -18.222656 41.730469 -23.511719 39.96875 -28.800781 C 39.96875 -29.976562 40.554688 -30.5625 41.144531 -31.738281 C 41.730469 -34.089844 42.90625 -36.441406 44.082031 -38.792969 C 46.433594 -46.433594 48.785156 -53.488281 50.546875 -60.539062 C 51.722656 -63.480469 52.898438 -66.417969 52.898438 -69.945312 C 53.488281 -72.882812 53.488281 -76.410156 52.3125 -78.761719 C 51.136719 -81.113281 48.199219 -83.464844 45.847656 -85.226562 C 44.082031 -88.167969 39.96875 -89.929688 38.207031 -92.867188 C 36.441406 -95.808594 34.679688 -94.632812 32.914062 -94.042969 C 30.5625 -94.042969 29.976562 -92.28125 30.5625 -89.929688 L 30.5625 -85.226562 C 27.625 -74.058594 24.6875 -64.066406 22.335938 -53.488281 C 19.984375 -45.847656 17.632812 -38.207031 16.457031 -30.5625 C 13.519531 -19.984375 11.167969 -8.816406 12.34375 1.175781 C 12.929688 3.527344 14.695312 4.703125 15.28125 7.054688 C 16.457031 8.230469 17.632812 9.992188 18.222656 11.753906 C 18.808594 12.929688 18.808594 14.695312 19.984375 15.28125 C 24.097656 18.222656 26.449219 23.511719 32.328125 24.6875 C 36.441406 25.863281 39.382812 27.625 44.082031 26.449219 C 48.199219 24.097656 52.3125 22.335938 55.839844 20.570312 C 59.367188 19.398438 62.890625 18.808594 65.242188 16.457031 C 68.769531 14.105469 71.707031 11.753906 74.058594 8.816406 C 77.585938 4.113281 81.699219 -0.585938 86.402344 -3.527344 L 89.34375 -6.464844 C 90.515625 -7.640625 91.105469 -9.40625 92.28125 -10.578125 L 98.746094 -19.984375 C 106.976562 -31.738281 108.152344 -37.03125 110.5 -39.96875 C 114.027344 -44.082031 126.960938 -64.65625 127.546875 -65.242188 Z M 128.136719 -65.832031 "/></g></g></g><g fill="#5ce1e6" fill-opacity="1"><g transform="translate(492.394869, 484.106575)"><g><path d="M 12.929688 10.578125 C 17.632812 12.34375 19.984375 11.167969 21.160156 4.113281 C 22.335938 0 22.335938 -4.113281 23.511719 -8.230469 C 25.273438 -13.519531 25.863281 -18.808594 28.214844 -24.6875 C 31.738281 -31.738281 36.441406 -38.207031 39.96875 -46.433594 C 44.082031 -53.488281 48.785156 -59.367188 52.898438 -65.242188 L 64.066406 -79.9375 C 67.007812 -82.875 70.53125 -85.816406 74.058594 -88.753906 C 75.234375 -90.515625 76.410156 -92.867188 78.175781 -93.457031 C 81.699219 -95.808594 85.226562 -96.984375 87.578125 -99.921875 C 91.105469 -102.859375 94.632812 -102.273438 98.160156 -102.273438 C 105.800781 -98.746094 109.324219 -100.507812 109.324219 -100.507812 L 109.914062 -103.449219 C 108.738281 -106.386719 107.5625 -108.738281 105.210938 -110.5 C 104.035156 -110.5 103.449219 -111.675781 102.859375 -112.265625 C 100.507812 -114.617188 97.570312 -116.96875 94.632812 -119.316406 C 87.578125 -123.433594 79.351562 -123.433594 71.707031 -117.554688 C 65.242188 -113.441406 58.777344 -108.738281 53.488281 -101.097656 C 49.375 -96.984375 45.847656 -94.042969 42.90625 -88.753906 C 42.320312 -86.992188 39.96875 -85.226562 38.207031 -82.875 C 38.207031 -85.816406 39.382812 -87.578125 39.382812 -89.34375 C 39.96875 -94.632812 39.382812 -99.921875 37.617188 -104.625 C 35.265625 -113.441406 30.5625 -116.378906 24.6875 -114.027344 C 22.921875 -114.027344 20.570312 -112.851562 19.398438 -111.089844 C 18.808594 -110.5 18.808594 -108.152344 18.222656 -106.976562 C 17.046875 -98.746094 15.28125 -91.105469 14.105469 -82.875 C 12.929688 -75.234375 9.992188 -67.007812 8.816406 -58.777344 C 8.816406 -52.3125 6.464844 -45.847656 5.289062 -39.382812 L 0.585938 -15.28125 C -1.175781 -7.640625 1.761719 -1.761719 4.113281 4.113281 C 8.816406 6.464844 9.40625 8.816406 12.929688 10.578125 Z M 12.929688 10.578125 "/></g></g></g><g fill="#5ce1e6" fill-opacity="1"><g transform="translate(607.598552, 484.106575)"><g><path d="M 222.765625 -78.175781 L 220.414062 -83.464844 L 218.652344 -84.640625 C 212.773438 -81.113281 208.074219 -78.175781 203.957031 -74.648438 C 190.4375 -65.832031 191.613281 -67.007812 177.507812 -58.191406 C 169.277344 -52.3125 160.460938 -47.023438 152.820312 -42.320312 C 144.59375 -36.441406 135.1875 -29.390625 125.785156 -25.273438 C 123.433594 -24.097656 121.082031 -24.097656 119.316406 -23.511719 C 117.554688 -22.921875 116.378906 -22.921875 115.203125 -23.511719 C 112.265625 -25.273438 110.5 -27.625 109.914062 -29.976562 C 106.386719 -38.207031 106.386719 -47.023438 108.152344 -55.25 C 108.738281 -56.425781 108.738281 -57.601562 109.324219 -58.191406 C 111.089844 -62.890625 110.5 -69.359375 110.5 -69.359375 C 109.324219 -73.472656 106.976562 -76.410156 103.449219 -77.585938 C 96.394531 -78.175781 92.28125 -73.472656 87.578125 -72.882812 C 90.515625 -78.761719 95.21875 -84.050781 93.457031 -92.28125 C 91.105469 -105.800781 77 -108.152344 64.65625 -110.5 C 53.488281 -109.324219 43.496094 -102.273438 36.441406 -94.632812 C 29.390625 -85.816406 21.746094 -78.761719 15.28125 -68.769531 C 14.105469 -67.59375 12.929688 -64.65625 10.578125 -61.714844 L 6.464844 -54.664062 C 5.289062 -50.546875 3.527344 -47.609375 2.9375 -44.082031 C 2.9375 -43.496094 2.9375 -43.496094 2.351562 -42.90625 C 1.175781 -39.382812 0 -36.441406 -1.761719 -32.328125 C -4.113281 -23.511719 -2.351562 -15.871094 2.9375 -8.816406 C 6.464844 -7.054688 11.167969 -4.113281 12.34375 -2.9375 C 14.105469 -2.351562 15.871094 -2.351562 17.046875 -2.351562 C 25.863281 1.175781 35.855469 1.175781 45.257812 -3.527344 C 54.664062 -7.640625 64.066406 -15.28125 71.121094 -20.570312 C 72.296875 -21.160156 72.882812 -22.921875 74.058594 -24.097656 C 78.175781 -24.097656 78.175781 -29.976562 82.289062 -32.328125 C 82.875 -31.152344 82.875 -29.976562 84.050781 -29.390625 C 85.816406 -26.449219 85.226562 -25.273438 88.753906 -21.746094 C 91.105469 -16.457031 95.21875 -14.105469 98.746094 -9.40625 C 100.507812 -8.816406 101.683594 -6.464844 103.449219 -5.878906 C 104.625 -4.703125 108.152344 -4.703125 109.324219 -4.113281 C 111.675781 -3.527344 116.96875 -4.703125 119.316406 -4.703125 C 121.082031 -4.703125 124.019531 -5.878906 124.609375 -5.878906 C 126.371094 -5.878906 129.308594 -7.054688 130.484375 -7.640625 C 133.425781 -9.40625 135.1875 -8.816406 138.714844 -10.578125 C 144.59375 -14.695312 149.882812 -15.871094 154.585938 -21.160156 L 168.691406 -31.738281 L 177.507812 -39.382812 C 179.269531 -39.96875 183.386719 -44.671875 183.972656 -45.257812 C 186.914062 -46.433594 189.261719 -49.375 191.027344 -51.136719 C 192.789062 -52.3125 196.90625 -54.074219 199.84375 -56.425781 C 207.484375 -61.714844 216.890625 -69.359375 222.765625 -78.175781 Z M 79.351562 -61.714844 C 70.53125 -52.3125 66.417969 -45.257812 57.601562 -35.855469 C 51.722656 -29.390625 46.433594 -25.273438 38.792969 -22.335938 C 32.914062 -19.984375 22.335938 -19.398438 15.871094 -19.398438 C 18.808594 -31.152344 24.097656 -41.144531 29.390625 -50.546875 C 35.855469 -61.714844 56.425781 -89.34375 74.058594 -92.28125 C 73.472656 -91.691406 68.769531 -65.832031 81.699219 -64.65625 L 82.289062 -64.65625 C 82.289062 -64.65625 79.9375 -61.714844 79.351562 -61.714844 Z M 79.351562 -61.714844 "/></g></g></g><g fill="#5ce1e6" fill-opacity="1"><g transform="translate(798.03729, 484.106575)"><g><path d="M 17.632812 27.039062 C 22.335938 28.214844 24.6875 27.625 27.039062 22.921875 C 27.625 22.335938 27.625 21.746094 28.800781 21.160156 L 30.5625 17.046875 C 33.503906 17.046875 35.855469 15.28125 38.207031 12.34375 C 41.144531 5.878906 52.3125 -15.871094 52.898438 -15.871094 L 55.839844 -19.984375 C 54.664062 -19.984375 58.191406 -22.921875 58.777344 -24.6875 C 60.539062 -27.625 64.65625 -28.214844 64.066406 -32.914062 C 68.183594 -34.679688 71.121094 -37.617188 72.296875 -42.320312 C 76.410156 -42.90625 78.761719 -44.671875 80.523438 -51.136719 C 81.113281 -49.375 82.289062 -48.785156 83.464844 -47.609375 C 83.464844 -44.082031 82.875 -39.96875 82.875 -37.03125 C 81.699219 -24.6875 84.050781 -13.519531 86.992188 -3.527344 C 89.34375 4.113281 94.042969 9.40625 99.332031 13.519531 C 102.273438 17.046875 104.035156 17.046875 108.152344 18.808594 L 108.738281 18.808594 C 117.554688 17.046875 127.546875 17.046875 135.777344 11.167969 C 141.066406 7.640625 146.355469 3.527344 149.882812 -0.585938 C 153.996094 -4.703125 158.699219 -8.230469 161.050781 -12.929688 C 161.050781 -13.519531 162.8125 -13.519531 163.402344 -14.105469 C 162.8125 -14.695312 162.8125 -15.871094 162.8125 -15.871094 C 165.753906 -17.632812 165.753906 -19.398438 166.339844 -20.570312 L 176.332031 -32.328125 C 178.683594 -34.089844 181.035156 -37.03125 182.210938 -39.382812 C 183.386719 -41.730469 183.386719 -44.082031 184.5625 -47.023438 L 189.851562 -55.25 C 192.789062 -58.777344 190.4375 -61.128906 186.914062 -61.128906 L 132.25 -8.816406 C 129.308594 -6.464844 125.785156 -4.703125 122.257812 -3.527344 C 112.265625 1.761719 110.5 2.351562 109.914062 2.9375 L 108.152344 2.9375 C 107.5625 2.351562 105.800781 0.585938 105.800781 -0.585938 L 104.035156 -6.464844 C 104.035156 -10.578125 104.035156 -15.28125 103.449219 -19.398438 C 104.035156 -21.160156 103.449219 -22.921875 103.449219 -24.097656 C 104.035156 -28.800781 104.625 -33.503906 104.625 -38.207031 C 104.035156 -43.496094 102.859375 -48.785156 101.097656 -54.074219 C 101.097656 -55.839844 101.683594 -57.601562 101.097656 -57.601562 C 98.746094 -58.777344 99.332031 -61.714844 98.746094 -64.65625 C 89.34375 -69.359375 88.167969 -70.53125 86.402344 -70.53125 C 84.640625 -71.121094 83.464844 -71.707031 78.761719 -71.707031 C 72.882812 -71.121094 72.296875 -71.121094 69.359375 -69.359375 C 64.65625 -65.832031 60.539062 -61.714844 57.015625 -57.601562 C 49.960938 -50.546875 43.496094 -42.320312 37.617188 -33.503906 C 37.617188 -32.914062 37.617188 -33.503906 37.03125 -32.914062 C 37.617188 -34.089844 37.617188 -34.679688 37.617188 -35.265625 C 38.792969 -39.382812 40.554688 -42.90625 41.730469 -47.023438 C 42.90625 -51.136719 42.90625 -54.074219 43.496094 -58.191406 C 44.082031 -62.890625 44.671875 -67.007812 45.847656 -71.707031 C 45.847656 -72.296875 45.847656 -72.296875 45.257812 -72.882812 C 41.144531 -78.761719 35.855469 -84.050781 28.214844 -84.640625 C 24.6875 -85.226562 23.511719 -84.050781 22.921875 -79.9375 C 22.335938 -76.410156 21.746094 -72.882812 23.511719 -71.121094 C 24.097656 -71.121094 24.097656 -69.945312 24.097656 -69.359375 C 22.921875 -62.304688 22.335938 -55.839844 20.570312 -48.785156 C 18.222656 -38.207031 14.695312 -27.625 11.753906 -17.632812 C 9.40625 -7.054688 8.230469 2.351562 6.464844 12.34375 C 5.289062 17.046875 14.105469 25.863281 17.632812 27.039062 Z M 17.632812 27.039062 "/></g></g></g><g fill="#5ce1e6" fill-opacity="1"><g transform="translate(950.270805, 484.106575)"><g/></g></g><g fill="#5ce1e6" fill-opacity="1"><g transform="translate(1061.947832, 484.106575)"><g><path d="M 126.371094 89.929688 C 145.179688 95.808594 166.929688 91.691406 185.738281 87.578125 C 185.738281 87.578125 186.324219 86.402344 187.5 85.226562 C 191.027344 81.113281 197.492188 81.113281 205.132812 79.9375 C 213.949219 78.761719 222.765625 74.648438 226.882812 68.183594 C 229.820312 62.890625 236.285156 58.777344 241.574219 53.488281 C 245.691406 51.136719 250.980469 48.785156 255.09375 45.257812 C 255.683594 44.671875 255.683594 42.320312 256.269531 39.382812 L 272.140625 19.984375 C 277.429688 15.28125 285.070312 8.816406 290.359375 2.351562 C 302.703125 -12.34375 312.109375 -27.039062 318.574219 -38.207031 C 327.976562 -54.074219 290.359375 -58.777344 264.5 -58.191406 C 226.292969 -57.015625 217.476562 -55.839844 185.148438 -49.960938 C 162.8125 -45.847656 161.636719 -32.914062 168.691406 -27.039062 C 218.652344 -42.90625 285.660156 -38.207031 289.773438 -33.503906 C 284.484375 -19.984375 269.199219 -4.113281 255.683594 9.40625 C 205.132812 59.953125 182.796875 71.707031 128.136719 69.945312 C 109.914062 69.359375 88.167969 58.777344 77 47.023438 C 68.183594 37.617188 62.890625 22.921875 61.714844 11.167969 C 60.539062 -0.585938 59.953125 -12.929688 60.539062 -25.273438 C 61.714844 -45.847656 71.707031 -65.832031 75.824219 -85.816406 C 74.648438 -89.34375 79.9375 -91.105469 81.113281 -94.632812 C 84.050781 -106.386719 96.394531 -118.144531 98.160156 -131.660156 C 99.921875 -132.835938 99.921875 -134.601562 100.507812 -135.1875 C 112.265625 -145.769531 117.554688 -158.699219 126.371094 -170.453125 C 145.179688 -194.554688 189.851562 -254.507812 233.347656 -254.507812 C 256.269531 -254.507812 265.085938 -242.164062 269.199219 -235.699219 C 283.894531 -211.011719 278.019531 -186.324219 269.789062 -162.226562 C 269.789062 -154.585938 283.308594 -149.882812 288.597656 -148.707031 C 296.828125 -146.945312 303.292969 -153.996094 305.644531 -170.453125 C 309.167969 -191.613281 309.167969 -205.722656 298 -230.996094 C 288.597656 -252.15625 271.550781 -266.261719 243.925781 -272.726562 C 211.597656 -280.957031 183.386719 -268.613281 160.460938 -249.214844 C 134.601562 -228.058594 116.378906 -208.074219 96.984375 -182.210938 C 88.167969 -171.042969 81.113281 -158.113281 74.058594 -146.945312 C 67.007812 -135.777344 60.539062 -124.609375 56.425781 -112.851562 C 45.257812 -90.515625 37.03125 -67.007812 34.089844 -41.730469 C 31.738281 -37.03125 30.5625 -30.5625 33.503906 -24.097656 L 29.390625 -12.929688 C 29.976562 29.390625 55.839844 51.136719 62.890625 58.777344 C 65.832031 61.714844 69.945312 64.066406 73.472656 67.007812 C 89.34375 77.585938 109.324219 83.464844 126.371094 89.929688 Z M 126.371094 89.929688 "/></g></g></g></svg>